<mxfile host="65bd71144e">
    <diagram id="8aNqu9n2fzhEXeBJSeK7" name="Page-1">
        <mxGraphModel dx="437" dy="182" grid="1" gridSize="10" guides="1" tooltips="1" connect="1" arrows="1" fold="1" page="1" pageScale="1" pageWidth="827" pageHeight="1169" math="0" shadow="0">
            <root>
                <mxCell id="0"/>
                <mxCell id="1" parent="0"/>
                <mxCell id="44" value="Application Development" style="fillColor=none;strokeColor=#5A6C86;dashed=1;verticalAlign=top;fontStyle=0;fontColor=#5A6C86;labelBackgroundColor=default;" vertex="1" parent="1">
                    <mxGeometry x="474" y="610" width="170" height="110" as="geometry"/>
                </mxCell>
                <mxCell id="11" style="edgeStyle=none;html=1;fontColor=default;labelBackgroundColor=default;" parent="1" source="7" target="10" edge="1">
                    <mxGeometry relative="1" as="geometry"/>
                </mxCell>
                <mxCell id="7" value="CDK IaC+App" style="aspect=fixed;html=1;points=[];align=center;image;fontSize=12;image=img/lib/azure2/general/Code.svg;fontColor=default;labelBackgroundColor=default;" parent="1" vertex="1">
                    <mxGeometry x="150" y="120" width="64" height="52" as="geometry"/>
                </mxCell>
                <mxCell id="9" style="edgeStyle=none;html=1;fontColor=default;labelBackgroundColor=default;" parent="1" source="8" target="7" edge="1">
                    <mxGeometry relative="1" as="geometry"/>
                </mxCell>
                <mxCell id="8" value="DesOps" style="verticalLabelPosition=bottom;shadow=0;dashed=0;align=center;html=1;verticalAlign=top;strokeWidth=1;shape=mxgraph.mockup.containers.userFemale;strokeColor=#666666;strokeColor2=#008cff;fontColor=default;labelBackgroundColor=default;" parent="1" vertex="1">
                    <mxGeometry x="20" y="96" width="100" height="100" as="geometry"/>
                </mxCell>
                <mxCell id="15" style="edgeStyle=none;html=1;entryX=0;entryY=0.5;entryDx=0;entryDy=0;labelBackgroundColor=default;fontColor=default;" parent="1" source="10" target="14" edge="1">
                    <mxGeometry relative="1" as="geometry"/>
                </mxCell>
                <mxCell id="10" value="Build/Test" style="aspect=fixed;perimeter=ellipsePerimeter;html=1;align=center;shadow=0;dashed=0;fontColor=default;labelBackgroundColor=default;fontSize=12;spacingTop=3;image;image=img/lib/ibm/devops/build_test.svg;" parent="1" vertex="1">
                    <mxGeometry x="250" y="116" width="60" height="60" as="geometry"/>
                </mxCell>
                <mxCell id="33" style="edgeStyle=orthogonalEdgeStyle;html=1;labelBackgroundColor=default;fontColor=default;startArrow=none;startFill=0;strokeWidth=1;" parent="1" source="14" target="32" edge="1">
                    <mxGeometry relative="1" as="geometry"/>
                </mxCell>
                <mxCell id="35" style="edgeStyle=orthogonalEdgeStyle;html=1;entryX=0;entryY=0.5;entryDx=0;entryDy=0;entryPerimeter=0;labelBackgroundColor=default;fontColor=default;startArrow=none;startFill=0;strokeWidth=1;" parent="1" source="14" target="34" edge="1">
                    <mxGeometry relative="1" as="geometry"/>
                </mxCell>
                <mxCell id="14" value="CDK-Dia" style="shape=image;verticalLabelPosition=bottom;labelBackgroundColor=default;verticalAlign=top;aspect=fixed;imageAspect=0;image=https://engineering.poppulo.com/content/images/2020/06/cdklogo-2-2.png;fontColor=default;" parent="1" vertex="1">
                    <mxGeometry x="349.5" y="114" width="64" height="64" as="geometry"/>
                </mxCell>
                <mxCell id="18" style="edgeStyle=none;html=1;labelBackgroundColor=default;fontColor=default;" parent="1" source="16" target="17" edge="1">
                    <mxGeometry relative="1" as="geometry"/>
                </mxCell>
                <mxCell id="16" value="Architect/&lt;br&gt;Designer" style="verticalLabelPosition=bottom;shadow=0;dashed=0;align=center;html=1;verticalAlign=top;strokeWidth=1;shape=mxgraph.mockup.containers.userFemale;strokeColor=#666666;strokeColor2=#008cff;fontColor=default;labelBackgroundColor=default;" parent="1" vertex="1">
                    <mxGeometry x="20" y="550" width="100" height="100" as="geometry"/>
                </mxCell>
                <mxCell id="20" value="Design&lt;br&gt;Interpretation" style="edgeStyle=orthogonalEdgeStyle;html=1;entryX=0.456;entryY=-0.07;entryDx=0;entryDy=0;entryPerimeter=0;labelBackgroundColor=default;fontColor=default;dashed=1;strokeWidth=5;dashPattern=1 2;startArrow=classic;startFill=1;" parent="1" source="17" target="19" edge="1">
                    <mxGeometry relative="1" as="geometry">
                        <mxPoint x="200" y="650" as="sourcePoint"/>
                        <Array as="points">
                            <mxPoint x="308" y="620"/>
                        </Array>
                    </mxGeometry>
                </mxCell>
                <mxCell id="17" value="Design" style="dashed=0;outlineConnect=0;html=1;align=center;labelPosition=center;verticalLabelPosition=bottom;verticalAlign=top;shape=mxgraph.webicons.drawio2;fillColor=#2174CE;gradientColor=#134277;labelBackgroundColor=default;fontColor=default;" parent="1" vertex="1">
                    <mxGeometry x="160" y="559.4" width="80" height="81.2" as="geometry"/>
                </mxCell>
                <mxCell id="22" value="" style="edgeStyle=orthogonalEdgeStyle;html=1;labelBackgroundColor=default;fontColor=default;strokeWidth=1;" parent="1" source="19" target="21" edge="1">
                    <mxGeometry relative="1" as="geometry"/>
                </mxCell>
                <mxCell id="19" value="CloudEng" style="verticalLabelPosition=bottom;shadow=0;dashed=0;align=center;html=1;verticalAlign=top;strokeWidth=1;shape=mxgraph.mockup.containers.userFemale;strokeColor=#666666;strokeColor2=#008cff;fontColor=default;labelBackgroundColor=default;" parent="1" vertex="1">
                    <mxGeometry x="262.4" y="722" width="100" height="100" as="geometry"/>
                </mxCell>
                <mxCell id="25" style="edgeStyle=orthogonalEdgeStyle;html=1;entryX=0;entryY=0.5;entryDx=0;entryDy=0;labelBackgroundColor=default;fontColor=default;startArrow=none;startFill=0;strokeWidth=1;entryPerimeter=0;" parent="1" source="21" target="29" edge="1">
                    <mxGeometry relative="1" as="geometry">
                        <mxPoint x="550" y="772" as="targetPoint"/>
                    </mxGeometry>
                </mxCell>
                <mxCell id="21" value="Cloudformation&lt;br&gt;Infra" style="sketch=0;points=[[0,0,0],[0.25,0,0],[0.5,0,0],[0.75,0,0],[1,0,0],[0,1,0],[0.25,1,0],[0.5,1,0],[0.75,1,0],[1,1,0],[0,0.25,0],[0,0.5,0],[0,0.75,0],[1,0.25,0],[1,0.5,0],[1,0.75,0]];points=[[0,0,0],[0.25,0,0],[0.5,0,0],[0.75,0,0],[1,0,0],[0,1,0],[0.25,1,0],[0.5,1,0],[0.75,1,0],[1,1,0],[0,0.25,0],[0,0.5,0],[0,0.75,0],[1,0.25,0],[1,0.5,0],[1,0.75,0]];outlineConnect=0;fontColor=default;gradientColor=#F34482;gradientDirection=north;fillColor=#BC1356;strokeColor=#ffffff;dashed=0;verticalLabelPosition=bottom;verticalAlign=top;align=center;html=1;fontSize=12;fontStyle=0;aspect=fixed;shape=mxgraph.aws4.resourceIcon;resIcon=mxgraph.aws4.cloudformation;labelBackgroundColor=default;" parent="1" vertex="1">
                    <mxGeometry x="416" y="743.5" width="57" height="57" as="geometry"/>
                </mxCell>
                <mxCell id="26" style="edgeStyle=orthogonalEdgeStyle;html=1;labelBackgroundColor=default;fontColor=default;startArrow=none;startFill=0;strokeWidth=1;entryX=0.5;entryY=0;entryDx=0;entryDy=0;" parent="1" source="23" target="44" edge="1">
                    <mxGeometry relative="1" as="geometry">
                        <mxPoint x="560.0000000000001" y="762" as="targetPoint"/>
                    </mxGeometry>
                </mxCell>
                <mxCell id="23" value="DevOps" style="verticalLabelPosition=bottom;shadow=0;dashed=0;align=center;html=1;verticalAlign=top;strokeWidth=1;shape=mxgraph.mockup.containers.userFemale;strokeColor=#666666;strokeColor2=#008cff;fontColor=default;labelBackgroundColor=default;" parent="1" vertex="1">
                    <mxGeometry x="509" y="481" width="100" height="100" as="geometry"/>
                </mxCell>
                <mxCell id="31" style="edgeStyle=orthogonalEdgeStyle;html=1;entryX=0;entryY=0.5;entryDx=0;entryDy=0;entryPerimeter=0;labelBackgroundColor=default;fontColor=default;startArrow=none;startFill=0;strokeWidth=1;" parent="1" source="29" target="30" edge="1">
                    <mxGeometry relative="1" as="geometry"/>
                </mxCell>
                <mxCell id="29" value="CodePipeline&lt;br&gt;CI/CD" style="sketch=0;points=[[0,0,0],[0.25,0,0],[0.5,0,0],[0.75,0,0],[1,0,0],[0,1,0],[0.25,1,0],[0.5,1,0],[0.75,1,0],[1,1,0],[0,0.25,0],[0,0.5,0],[0,0.75,0],[1,0.25,0],[1,0.5,0],[1,0.75,0]];outlineConnect=0;fontColor=default;gradientColor=#4D72F3;gradientDirection=north;fillColor=#3334B9;strokeColor=#ffffff;dashed=0;verticalLabelPosition=bottom;verticalAlign=top;align=center;html=1;fontSize=12;fontStyle=0;aspect=fixed;shape=mxgraph.aws4.resourceIcon;resIcon=mxgraph.aws4.codepipeline;labelBackgroundColor=default;" parent="1" vertex="1">
                    <mxGeometry x="525" y="738" width="68" height="68" as="geometry"/>
                </mxCell>
                <mxCell id="30" value="Code &lt;br&gt;Deployment" style="sketch=0;points=[[0,0,0],[0.25,0,0],[0.5,0,0],[0.75,0,0],[1,0,0],[0,1,0],[0.25,1,0],[0.5,1,0],[0.75,1,0],[1,1,0],[0,0.25,0],[0,0.5,0],[0,0.75,0],[1,0.25,0],[1,0.5,0],[1,0.75,0]];outlineConnect=0;fontColor=default;gradientColor=#4D72F3;gradientDirection=north;fillColor=#3334B9;strokeColor=#ffffff;dashed=0;verticalLabelPosition=bottom;verticalAlign=top;align=center;html=1;fontSize=12;fontStyle=0;aspect=fixed;shape=mxgraph.aws4.resourceIcon;resIcon=mxgraph.aws4.codedeploy;labelBackgroundColor=default;" parent="1" vertex="1">
                    <mxGeometry x="650" y="738" width="68" height="68" as="geometry"/>
                </mxCell>
                <mxCell id="32" value="Compiled Design" style="dashed=0;outlineConnect=0;html=1;align=center;labelPosition=center;verticalLabelPosition=bottom;verticalAlign=top;shape=mxgraph.webicons.drawio2;fillColor=#2174CE;gradientColor=#134277;labelBackgroundColor=default;fontColor=default;" parent="1" vertex="1">
                    <mxGeometry x="353.25" y="228" width="56.5" height="55.2" as="geometry"/>
                </mxCell>
                <mxCell id="40" style="edgeStyle=orthogonalEdgeStyle;html=1;labelBackgroundColor=default;fontColor=default;startArrow=none;startFill=0;strokeWidth=1;" parent="1" source="34" target="39" edge="1">
                    <mxGeometry relative="1" as="geometry"/>
                </mxCell>
                <mxCell id="34" value="CodePipeline" style="sketch=0;points=[[0,0,0],[0.25,0,0],[0.5,0,0],[0.75,0,0],[1,0,0],[0,1,0],[0.25,1,0],[0.5,1,0],[0.75,1,0],[1,1,0],[0,0.25,0],[0,0.5,0],[0,0.75,0],[1,0.25,0],[1,0.5,0],[1,0.75,0]];outlineConnect=0;fontColor=default;gradientColor=#4D72F3;gradientDirection=north;fillColor=#3334B9;strokeColor=#ffffff;dashed=0;verticalLabelPosition=bottom;verticalAlign=top;align=center;html=1;fontSize=12;fontStyle=0;aspect=fixed;shape=mxgraph.aws4.resourceIcon;resIcon=mxgraph.aws4.codepipeline;labelBackgroundColor=default;" parent="1" vertex="1">
                    <mxGeometry x="451" y="117" width="58" height="58" as="geometry"/>
                </mxCell>
                <mxCell id="37" style="edgeStyle=orthogonalEdgeStyle;html=1;entryX=0.5;entryY=0;entryDx=0;entryDy=0;entryPerimeter=0;labelBackgroundColor=default;fontColor=default;startArrow=none;startFill=0;strokeWidth=1;exitX=0.5;exitY=1;exitDx=0;exitDy=0;" parent="1" source="44" target="29" edge="1">
                    <mxGeometry relative="1" as="geometry"/>
                </mxCell>
                <mxCell id="36" value="App" style="aspect=fixed;html=1;points=[];align=center;image;fontSize=12;image=img/lib/azure2/general/Code.svg;fontColor=default;labelBackgroundColor=default;" parent="1" vertex="1">
                    <mxGeometry x="490" y="640" width="61.54" height="50" as="geometry"/>
                </mxCell>
                <mxCell id="39" value="CodeDeploy" style="sketch=0;points=[[0,0,0],[0.25,0,0],[0.5,0,0],[0.75,0,0],[1,0,0],[0,1,0],[0.25,1,0],[0.5,1,0],[0.75,1,0],[1,1,0],[0,0.25,0],[0,0.5,0],[0,0.75,0],[1,0.25,0],[1,0.5,0],[1,0.75,0]];outlineConnect=0;fontColor=default;gradientColor=#4D72F3;gradientDirection=north;fillColor=#3334B9;strokeColor=#ffffff;dashed=0;verticalLabelPosition=bottom;verticalAlign=top;align=center;html=1;fontSize=12;fontStyle=0;aspect=fixed;shape=mxgraph.aws4.resourceIcon;resIcon=mxgraph.aws4.codedeploy;labelBackgroundColor=default;" parent="1" vertex="1">
                    <mxGeometry x="560" y="116" width="60" height="60" as="geometry"/>
                </mxCell>
                <mxCell id="41" value="DesOps" style="text;html=1;strokeColor=none;fillColor=none;align=center;verticalAlign=middle;whiteSpace=wrap;rounded=0;labelBackgroundColor=default;fontColor=default;fontSize=37;" parent="1" vertex="1">
                    <mxGeometry x="349.5" y="30" width="60" height="30" as="geometry"/>
                </mxCell>
                <mxCell id="42" value="Arch + Cloud Eng + DevOps" style="text;html=1;strokeColor=none;fillColor=none;align=center;verticalAlign=middle;whiteSpace=wrap;rounded=0;labelBackgroundColor=default;fontColor=default;fontSize=37;" parent="1" vertex="1">
                    <mxGeometry x="91.5" y="420" width="580" height="30" as="geometry"/>
                </mxCell>
                <mxCell id="43" value="Cfn Infra" style="sketch=0;points=[[0,0,0],[0.25,0,0],[0.5,0,0],[0.75,0,0],[1,0,0],[0,1,0],[0.25,1,0],[0.5,1,0],[0.75,1,0],[1,1,0],[0,0.25,0],[0,0.5,0],[0,0.75,0],[1,0.25,0],[1,0.5,0],[1,0.75,0]];points=[[0,0,0],[0.25,0,0],[0.5,0,0],[0.75,0,0],[1,0,0],[0,1,0],[0.25,1,0],[0.5,1,0],[0.75,1,0],[1,1,0],[0,0.25,0],[0,0.5,0],[0,0.75,0],[1,0.25,0],[1,0.5,0],[1,0.75,0]];outlineConnect=0;fontColor=default;gradientColor=#F34482;gradientDirection=north;fillColor=#BC1356;strokeColor=#ffffff;dashed=0;verticalLabelPosition=bottom;verticalAlign=top;align=center;html=1;fontSize=12;fontStyle=0;aspect=fixed;shape=mxgraph.aws4.resourceIcon;resIcon=mxgraph.aws4.cloudformation;labelBackgroundColor=default;" vertex="1" parent="1">
                    <mxGeometry x="570" y="640" width="50" height="50" as="geometry"/>
                </mxCell>
                <mxCell id="45" value="Design&lt;br&gt;Interpretation" style="edgeStyle=orthogonalEdgeStyle;html=1;labelBackgroundColor=default;fontColor=default;dashed=1;strokeWidth=5;dashPattern=1 2;startArrow=classic;startFill=1;entryX=-0.002;entryY=0.543;entryDx=0;entryDy=0;entryPerimeter=0;" edge="1" parent="1" source="17" target="23">
                    <mxGeometry relative="1" as="geometry">
                        <mxPoint x="260" y="580" as="sourcePoint"/>
                        <Array as="points">
                            <mxPoint x="318" y="580"/>
                            <mxPoint x="318" y="535"/>
                        </Array>
                        <mxPoint x="460" y="600" as="targetPoint"/>
                    </mxGeometry>
                </mxCell>
            </root>
        </mxGraphModel>
    </diagram>
</mxfile>